<?xml version="1.0" standalone="no"?><!DOCTYPE svg PUBLIC "-//W3C//DTD SVG 1.1//EN" "http://www.w3.org/Graphics/SVG/1.1/DTD/svg11.dtd"><svg t="1701853064284" class="icon" viewBox="0 0 1152 1024" version="1.1" xmlns="http://www.w3.org/2000/svg" p-id="11291" data-spm-anchor-id="a313x.search_index.0.i23.64043a81hghEuR" xmlns:xlink="http://www.w3.org/1999/xlink" width="225" height="200"><path d="M986.752 171.178667a53.333333 53.333333 0 0 1 0 106.666666 53.333333 53.333333 0 0 1 0-106.666666z m-853.333333 0a53.333333 53.333333 0 0 0 0 106.666666 53.333333 53.333333 0 0 0 0-106.666666z m586.666666 160a53.333333 53.333333 0 0 0 106.666667 0 53.333333 53.333333 0 0 0-106.666667 0z m311.125334-17.749334a286.08 286.08 0 0 1-30.293334 87.722667c-0.853333-23.466667-2.432-28.074667-4.906666-66.986667 0 0 8.533333-11.008 8.533333-20.736h-35.541333c0 9.728 8.533333 20.736 8.533333 20.736-2.432 39.04-4.053333 43.52-4.906667 67.157334a286.634667 286.634667 0 0 1-30.250666-87.893334c-22.869333 0.128-80.042667 2.389333-80.042667 62.250667v14.592c63.061333 16.938667 71.125333 67.754667 71.125333 92.074667v117.930666c0 37.845333-12.970667 62.421333-29.653333 77.738667v56.106667a41.472 41.472 0 1 0 82.986667 0 41.429333 41.429333 0 1 0 82.986666 0v-178.304s41.429333 0 41.429334-62.208V375.68c0-59.818667-57.088-62.122667-80-62.250667zM186.794667 600.32v-117.930667c0-24.32 8.021333-75.093333 71.082666-92.074666v-14.592c0-59.861333-57.173333-62.122667-80-62.250667a287.274667 287.274667 0 0 1-30.293333 87.893333c-0.853333-23.594667-2.474667-28.117333-4.906667-67.157333 0 0 8.533333-11.008 8.533334-20.736h-35.541334c0 9.728 8.533333 20.736 8.533334 20.736-2.432 38.912-4.053333 43.52-4.906667 66.986667a285.653333 285.653333 0 0 1-30.293333-87.722667C66.133333 313.6 9.088 315.861333 9.088 375.68v117.930667c0 62.208 41.429333 62.208 41.429333 62.208v178.304a41.472 41.472 0 1 0 82.986667 0 41.429333 41.429333 0 1 0 82.986667 0v-56.106667c-16.682667-15.317333-29.653333-39.893333-29.653334-77.738667z m160-322.432a53.333333 53.333333 0 0 0 0 106.666667 53.333333 53.333333 0 0 0 0-106.666667z m471.082666 142.250667a286.08 286.08 0 0 1-30.293333 87.722666c-0.853333-23.466667-2.432-28.074667-4.906667-66.986666 0 0 8.533333-11.008 8.533334-20.778667h-35.541334c0 9.813333 8.533333 20.778667 8.533334 20.778667-2.432 39.04-4.053333 43.52-4.906667 67.157333a286.634667 286.634667 0 0 1-30.250667-87.893333c-22.869333 0.128-80.042667 2.389333-80.042666 62.208v14.592c63.061333 16.981333 71.125333 67.797333 71.125333 92.117333v117.930667c0 37.845333-12.970667 62.421333-29.653333 77.738666v56.106667a41.472 41.472 0 1 0 82.986666 0 41.429333 41.429333 0 1 0 82.986667 0v-178.304s41.429333 0 41.429333-62.208v-117.930667c0-59.818667-57.088-62.122667-80-62.250666zM400.128 706.986667v-117.930667c0-24.32 8.021333-75.093333 71.082667-92.117333v-14.592c0-59.861333-57.173333-62.122667-80.042667-62.208a287.274667 287.274667 0 0 1-30.208 87.893333c-0.853333-23.594667-2.517333-28.16-4.949333-67.157333 0 0 8.533333-11.008 8.533333-20.778667h-35.541333c0 9.813333 8.533333 20.778667 8.533333 20.778667-2.432 38.912-4.053333 43.52-4.906667 66.986666a285.653333 285.653333 0 0 1-30.293333-87.722666c-22.869333 0.128-79.957333 2.432-79.957333 62.208v117.973333c0 62.208 41.429333 62.208 41.429333 62.208v178.304a41.472 41.472 0 1 0 82.986667 0 41.429333 41.429333 0 1 0 82.986666 0V784.64c-16.682667-15.317333-29.653333-39.893333-29.653333-77.738667z m106.666667-269.098667a53.333333 53.333333 0 0 0 106.666666 0 53.333333 53.333333 0 0 0-106.666666 0z m53.333333-231.082667a53.333333 53.333333 0 0 1 0 106.666667 53.333333 53.333333 0 0 1 0-106.666667z m-213.333333-106.666666a53.333333 53.333333 0 0 1 0 106.666666 53.333333 53.333333 0 0 1 0-106.666666z m426.666666 0a53.333333 53.333333 0 0 1 0 106.666666 53.333333 53.333333 0 0 1 0-106.666666z m-213.333333-71.125334a53.333333 53.333333 0 0 1 0 106.666667 53.333333 53.333333 0 0 1 0-106.666667z m44.416 497.792a286.08 286.08 0 0 1-30.293333 87.722667c-0.810667-23.466667-2.432-28.074667-4.906667-66.986667 0 0 8.533333-11.008 8.533333-20.736h-35.541333c0 9.728 8.533333 20.736 8.533333 20.736-2.389333 39.04-4.053333 43.52-4.906666 67.157334a286.634667 286.634667 0 0 1-30.250667-87.893334c-22.869333 0.128-80 2.389333-80 62.250667v117.930667c0 62.208 41.429333 62.208 41.429333 62.208v178.304a41.472 41.472 0 1 0 82.986667 0 41.429333 41.429333 0 1 0 82.986667 0v-178.304s41.472 0 41.472-62.208v-117.930667c0-59.861333-57.130667-62.122667-80.042667-62.250667z" fill="#dbdbdb" p-id="11292" data-spm-anchor-id="a313x.search_index.0.i24.64043a81hghEuR" class="selected"></path></svg>